<svg width="148" height="119" viewBox="0 0 148 119" fill="none" xmlns="http://www.w3.org/2000/svg">
<circle cx="69.0848" cy="34.8072" r="26.1562" transform="rotate(6.38686 69.0848 34.8072)" stroke="#3716C7" stroke-width="3"/>
<rect x="8.10645" y="38.1802" width="123.878" height="67.2975" rx="13" transform="rotate(-7.18558 8.10645 38.1802)" fill="#3716C7"/>
<path d="M49.4301 74.1989C49.6579 75.8331 49.4376 77.4023 48.769 78.9066C48.126 80.3774 47.0331 81.6626 45.4903 82.7621C43.9732 83.8281 42.0896 84.5469 39.8396 84.9185L40.3429 88.5286L37.4851 88.8854L36.9755 85.2307C33.7827 85.3572 31.107 84.739 28.9483 83.3761C26.7855 81.9835 25.4499 79.8981 24.9414 77.12L33.0683 76.1054C33.4955 77.8659 34.5183 78.902 36.1367 79.2139L35.1549 72.172C32.7501 71.8676 30.8087 71.5205 29.3309 71.1306C27.8828 70.737 26.5508 69.9813 25.3349 68.8634C24.119 67.7456 23.3599 66.1021 23.0575 63.9331C22.6805 61.2293 23.3754 58.9358 25.142 57.0526C26.9385 55.1657 29.4 53.9213 32.5265 53.3194L32.0232 49.7093L34.881 49.3525L35.3843 52.9626C38.5432 52.8101 41.1404 53.4079 43.1758 54.7559C45.2113 56.104 46.5279 58.1615 47.1257 60.9285L38.9541 61.9486C38.5518 60.3664 37.6477 59.4213 36.2418 59.1131L37.2049 66.0213C39.771 66.3962 41.7612 66.7675 43.1753 67.1351C44.5895 67.5027 45.9045 68.2454 47.1204 69.3633C48.362 70.4477 49.1318 72.0596 49.4301 74.1989ZM31.09 62.5676C31.1936 63.3104 31.5039 63.9065 32.0208 64.3559C32.5675 64.8015 33.2995 65.1636 34.2166 65.4421L33.3529 59.247C32.5401 59.4996 31.9308 59.9082 31.5249 60.4728C31.1148 61.0077 30.9699 61.7059 31.09 62.5676ZM39.0131 78.9908C39.8855 78.7308 40.5354 78.2869 40.9627 77.6592C41.4199 77.0278 41.5904 76.2961 41.4744 75.4641C41.3667 74.6916 41.0267 74.0992 40.4543 73.687C39.9076 73.2413 39.1331 72.8997 38.1308 72.6621L39.0131 78.9908ZM51.2668 57.3281L50.2789 50.2416L62.6478 48.6975L67.1839 81.2328L59.2356 82.2251L55.6875 56.7762L51.2668 57.3281ZM79.2938 70.0173C80.0676 72.3089 81.6006 73.3116 83.8928 73.0254C85.4705 72.8284 86.4895 71.9908 86.9497 70.5126C87.4099 69.0343 87.4205 66.7204 86.9814 63.5709C86.4549 64.5738 85.6612 65.3983 84.6005 66.0447C83.5397 66.691 82.3097 67.1015 80.9105 67.2762C79.0053 67.514 77.2547 67.3396 75.6585 66.7529C74.0582 66.1364 72.7187 65.1096 71.64 63.6723C70.5869 62.2016 69.905 60.352 69.5943 58.1236C69.2878 55.9248 69.4671 53.9526 70.1324 52.2069C70.8274 50.4575 71.9463 49.0331 73.489 47.9336C75.0616 46.8304 76.994 46.1357 79.2862 45.8496C83.692 45.2996 86.9636 46.2817 89.1011 48.796C91.2386 51.3103 92.6781 55.2267 93.4196 60.5453C93.9581 64.4079 94.0462 67.6466 93.6839 70.2614C93.3471 72.8427 92.4364 74.8911 90.9516 76.4066C89.4966 77.9183 87.3402 78.8526 84.4823 79.2094C82.2199 79.4918 80.2228 79.2877 78.491 78.597C76.789 77.9026 75.4048 76.8813 74.3385 75.5331C73.302 74.1813 72.602 72.6363 72.2385 70.8981L79.2938 70.0173ZM81.8132 61.042C83.0635 60.8859 84.0089 60.39 84.6496 59.5543C85.2861 58.6888 85.5132 57.6024 85.331 56.2951C85.1321 54.8689 84.5919 53.8178 83.7102 53.1419C82.8285 52.466 81.7327 52.2098 80.4229 52.3733C79.113 52.5368 78.1271 53.068 77.4649 53.9669C76.8284 54.8323 76.6054 55.9484 76.796 57.3152C76.9741 58.5929 77.4912 59.5864 78.3473 60.2957C79.229 60.9716 80.3843 61.2204 81.8132 61.042ZM106.766 66.5877C107.54 68.8793 109.073 69.882 111.365 69.5958C112.943 69.3989 113.962 68.5613 114.422 67.083C114.882 65.6048 114.893 63.2909 114.454 60.1413C113.927 61.1442 113.134 61.9688 112.073 62.6151C111.012 63.2614 109.782 63.6719 108.383 63.8466C106.478 64.0844 104.727 63.91 103.131 63.3233C101.531 62.7069 100.191 61.68 99.1123 60.2427C98.0592 58.772 97.3773 56.9224 97.0666 54.694C96.7601 52.4953 96.9394 50.523 97.6047 48.7774C98.2997 47.028 99.4186 45.6035 100.961 44.504C102.534 43.4008 104.466 42.7061 106.758 42.42C111.164 41.87 114.436 42.8521 116.573 45.3664C118.711 47.8807 120.15 51.7972 120.892 57.1157C121.43 60.9784 121.519 64.2171 121.156 66.8318C120.819 69.4131 119.909 71.4616 118.424 72.977C116.969 74.4888 114.812 75.423 111.955 75.7798C109.692 76.0622 107.695 75.8581 105.963 75.1674C104.261 74.473 102.877 73.4517 101.811 72.1036C100.774 70.7517 100.074 69.2067 99.7108 67.4685L106.766 66.5877ZM109.285 57.6124C110.536 57.4563 111.481 56.9604 112.122 56.1247C112.758 55.2592 112.986 54.1729 112.803 52.8655C112.604 51.4393 112.064 50.3882 111.182 49.7123C110.301 49.0364 109.205 48.7802 107.895 48.9437C106.585 49.1073 105.599 49.6385 104.937 50.5373C104.301 51.4028 104.078 52.5189 104.268 53.8856C104.446 55.1633 104.963 56.1568 105.82 56.8661C106.701 57.542 107.857 57.7908 109.285 57.6124Z" fill="white"/>
</svg>
